<svg xmlns="http://www.w3.org/2000/svg" xmlns:xlink="http://www.w3.org/1999/xlink" width="200" zoomAndPan="magnify" viewBox="0 0 150 74.999997" height="100" preserveAspectRatio="xMidYMid meet" version="1.0"><defs><g><g id="id1"/></g></defs><g fill="rgb(100%, 100%, 100%)" fill-opacity="1"><g transform="translate(13.628908, 39.052597)"><g><path d="M 0.726562 -0.128906 L 0.726562 0 L 11.25 0 L 12.210938 -3.285156 L 12.078125 -3.285156 C 11.382812 -1.175781 9.664062 -0.128906 7.164062 -0.128906 C 6.105469 -0.128906 5.449219 -0.710938 5.449219 -1.671875 L 5.449219 -6.511719 L 7.632812 -6.511719 C 8.96875 -6.46875 9.097656 -5.261719 9.097656 -4.925781 L 9.097656 -4.855469 L 9.230469 -4.855469 L 9.230469 -8.285156 L 9.097656 -8.285156 L 9.097656 -8.210938 C 9.097656 -7.878906 8.96875 -6.671875 7.632812 -6.640625 L 5.449219 -6.640625 L 5.464844 -12.398438 L 6.511719 -12.398438 C 10.027344 -12.398438 10.785156 -10.246094 10.929688 -9.507812 L 10.972656 -9.246094 L 11.089844 -9.300781 L 10.597656 -12.527344 L 0.726562 -12.527344 L 0.726562 -12.398438 C 1.789062 -12.398438 2.441406 -11.816406 2.441406 -10.859375 L 2.441406 -1.671875 C 2.441406 -0.710938 1.789062 -0.128906 0.726562 -0.128906 Z M 0.726562 -0.128906 "/></g></g></g><g fill="rgb(100%, 100%, 100%)" fill-opacity="1"><g transform="translate(26.561772, 39.052597)"><g><path d="M 7.09375 0 C 7.835938 0 8.5625 -0.128906 9.230469 -0.378906 C 10.550781 -0.769531 11.191406 -0.710938 11.25 -0.128906 L 11.382812 -0.128906 L 11.382812 -4.433594 L 11.25 -4.433594 L 11.25 -4.230469 C 11.207031 -1.730469 9.535156 -0.128906 7.09375 -0.128906 C 6.191406 -0.128906 3.707031 -0.769531 3.691406 -6.367188 C 3.707031 -11.960938 6.191406 -12.601562 7.09375 -12.601562 C 9.171875 -12.601562 11.164062 -11.308594 11.25 -9.171875 L 11.382812 -9.171875 L 11.382812 -12.601562 L 11.25 -12.601562 C 11.191406 -12.050781 10.609375 -11.949219 9.230469 -12.355469 C 8.5625 -12.601562 7.835938 -12.734375 7.09375 -12.734375 C 5.390625 -12.734375 3.792969 -12.0625 2.601562 -10.871094 L 2.558594 -10.828125 C 1.511719 -9.765625 0.828125 -8.328125 0.726562 -6.746094 L 0.726562 -6.015625 C 0.914062 -2.644531 3.722656 0 7.09375 0 Z M 7.09375 0 "/></g></g></g><g fill="rgb(100%, 100%, 100%)" fill-opacity="1"><g transform="translate(38.666359, 39.052597)"><g><path d="M 7.09375 0.144531 C 10.609375 0.144531 13.460938 -2.777344 13.460938 -6.292969 C 13.460938 -9.871094 10.597656 -12.734375 7.09375 -12.734375 C 3.589844 -12.734375 0.726562 -9.871094 0.726562 -6.292969 C 0.726562 -2.835938 3.546875 0.144531 7.09375 0.144531 Z M 7.09375 -0.0273438 C 6.191406 -0.0273438 3.691406 -0.566406 3.691406 -6.292969 C 3.691406 -11.960938 6.191406 -12.558594 7.09375 -12.558594 C 8.007812 -12.558594 10.496094 -11.960938 10.496094 -6.292969 C 10.496094 -0.566406 8.007812 -0.0273438 7.09375 -0.0273438 Z M 7.09375 -0.0273438 "/></g></g></g><g fill="rgb(100%, 100%, 100%)" fill-opacity="1"><g transform="translate(52.848918, 39.052597)"><g><path d="M 2.515625 -10.914062 L 7.296875 0.117188 L 12.644531 -12.238281 L 12.644531 -1.597656 C 12.644531 -0.683594 12.019531 -0.128906 10.988281 -0.128906 L 10.988281 0 L 17.269531 0 L 17.269531 -0.128906 C 16.308594 -0.128906 15.640625 -0.640625 15.609375 -1.597656 L 15.609375 -10.859375 C 15.609375 -12.472656 17.253906 -12.382812 17.253906 -12.382812 L 17.253906 -12.527344 L 12.632812 -12.527344 L 8.835938 -3.777344 L 5.042969 -12.527344 L 0.726562 -12.527344 L 0.726562 -12.398438 C 0.726562 -12.382812 2.382812 -12.472656 2.382812 -10.914062 L 2.382812 -1.597656 C 2.382812 -0.683594 1.757812 -0.128906 0.726562 -0.128906 L 0.726562 0 L 4.171875 0 L 4.171875 -0.128906 C 3.210938 -0.128906 2.542969 -0.640625 2.515625 -1.597656 Z M 2.515625 -10.914062 "/></g></g></g><g fill="rgb(100%, 100%, 100%)" fill-opacity="1"><g transform="translate(70.838685, 39.052597)"><g><path d="M 11.175781 -3.386719 C 10.335938 -6.394531 7.457031 -8.050781 5.449219 -6.351562 L 9.753906 -10.859375 C 10.960938 -12.109375 12.09375 -12.371094 12.585938 -12.398438 L 12.804688 -12.398438 L 12.804688 -12.527344 L 9.375 -12.527344 L 9.375 -12.398438 L 9.535156 -12.398438 C 9.914062 -12.371094 10.8125 -12.136719 9.578125 -10.859375 L 5.449219 -6.554688 L 5.449219 -10.859375 C 5.449219 -11.816406 6.105469 -12.398438 7.164062 -12.398438 L 7.164062 -12.527344 L 0.726562 -12.527344 L 0.726562 -12.398438 C 1.789062 -12.398438 2.441406 -11.816406 2.441406 -10.859375 L 2.441406 -1.671875 C 2.441406 -0.710938 1.789062 -0.128906 0.726562 -0.128906 L 0.726562 0 L 7.164062 0 L 7.164062 -0.128906 C 6.105469 -0.128906 5.449219 -0.710938 5.449219 -1.671875 L 5.449219 -6.207031 C 6.671875 -6.628906 7.382812 -5.390625 8.066406 -3.386719 C 8.851562 -1.046875 10.289062 0 11.382812 0 L 14.289062 0 L 14.289062 -0.128906 C 12.980469 -0.128906 11.832031 -1.03125 11.175781 -3.386719 Z M 11.175781 -3.386719 "/></g></g></g><g fill="rgb(100%, 100%, 100%)" fill-opacity="1"><g transform="translate(85.849533, 39.052597)"><g><path d="M 0.726562 -0.128906 L 0.726562 0 L 7.164062 0 L 7.164062 -0.128906 C 6.105469 -0.128906 5.449219 -0.710938 5.449219 -1.671875 L 5.449219 -10.859375 C 5.449219 -11.816406 6.105469 -12.398438 7.164062 -12.398438 L 7.164062 -12.527344 L 0.726562 -12.527344 L 0.726562 -12.398438 C 1.789062 -12.398438 2.441406 -11.816406 2.441406 -10.859375 L 2.441406 -1.671875 C 2.441406 -0.710938 1.789062 -0.128906 0.726562 -0.128906 Z M 0.726562 -0.128906 "/></g></g></g><g fill="rgb(100%, 100%, 100%)" fill-opacity="1"><g transform="translate(93.740039, 39.052597)"><g><path d="M 3.734375 -0.128906 L 3.734375 0 L 10.175781 0 L 10.175781 -0.128906 C 9.113281 -0.128906 8.460938 -0.710938 8.460938 -1.671875 L 8.460938 -12.398438 L 8.589844 -12.398438 C 12.109375 -12.398438 12.863281 -10.246094 13.007812 -9.507812 L 13.050781 -9.246094 L 13.167969 -9.300781 L 12.675781 -12.527344 L 1.222656 -12.527344 L 0.726562 -9.300781 L 0.84375 -9.246094 L 0.886719 -9.507812 C 1.046875 -10.246094 1.789062 -12.398438 5.304688 -12.398438 L 5.449219 -12.398438 L 5.449219 -1.671875 C 5.449219 -0.710938 4.796875 -0.128906 3.734375 -0.128906 Z M 3.734375 -0.128906 "/></g></g></g><g fill="rgb(100%, 100%, 100%)" fill-opacity="1"><g transform="translate(107.631975, 39.052597)"><g><path d="M 3.734375 -0.128906 L 3.734375 0 L 10.175781 0 L 10.175781 -0.128906 C 9.113281 -0.128906 8.460938 -0.710938 8.460938 -1.671875 L 8.460938 -12.398438 L 8.589844 -12.398438 C 12.109375 -12.398438 12.863281 -10.246094 13.007812 -9.507812 L 13.050781 -9.246094 L 13.167969 -9.300781 L 12.675781 -12.527344 L 1.222656 -12.527344 L 0.726562 -9.300781 L 0.84375 -9.246094 L 0.886719 -9.507812 C 1.046875 -10.246094 1.789062 -12.398438 5.304688 -12.398438 L 5.449219 -12.398438 L 5.449219 -1.671875 C 5.449219 -0.710938 4.796875 -0.128906 3.734375 -0.128906 Z M 3.734375 -0.128906 "/></g></g></g><g fill="rgb(100%, 100%, 100%)" fill-opacity="1"><g transform="translate(121.523911, 39.052597)"><g><path d="M 4.199219 -0.128906 L 4.199219 0 L 10.640625 0 L 10.640625 -0.128906 C 9.578125 -0.128906 8.925781 -0.726562 8.925781 -1.6875 L 8.925781 -5.625 L 11.773438 -10.828125 C 12.253906 -11.699219 13.023438 -12.339844 14.128906 -12.382812 L 14.128906 -12.515625 L 10.683594 -12.515625 L 10.683594 -12.382812 C 11.789062 -12.355469 12.121094 -11.746094 11.628906 -10.84375 L 8.851562 -5.785156 L 5.929688 -10.84375 C 5.40625 -11.757812 5.566406 -12.355469 6.628906 -12.382812 L 6.628906 -12.515625 L 0.726562 -12.515625 L 0.726562 -12.382812 C 1.65625 -12.355469 2.414062 -11.816406 2.980469 -10.84375 L 5.914062 -5.710938 L 5.914062 -1.6875 C 5.914062 -0.726562 5.246094 -0.128906 4.199219 -0.128906 Z M 4.199219 -0.128906 "/></g></g></g><g fill="rgb(100%, 100%, 100%)" fill-opacity="1"><g transform="translate(40.570116, 47.684237)"><g><path d="M 0.6875 -3.1875 L 2.4375 -3.1875 L 2.375 -2.796875 L 1.046875 -2.796875 L 0.890625 -1.859375 L 1.90625 -1.859375 L 1.84375 -1.46875 L 0.8125 -1.46875 L 0.5625 0 L 0.125 0 Z M 0.6875 -3.1875 "/></g></g></g><g fill="rgb(100%, 100%, 100%)" fill-opacity="1"><g transform="translate(42.780882, 47.684237)"><g><path d="M 0.609375 -3.1875 L 1.015625 -3.1875 L 0.9375 -2.734375 L 0.53125 -2.734375 Z M 0.4375 -2.234375 L 0.84375 -2.234375 L 0.453125 0 L 0.046875 0 Z M 0.4375 -2.234375 "/></g></g></g><g fill="rgb(100%, 100%, 100%)" fill-opacity="1"><g transform="translate(43.752349, 47.684237)"><g><path d="M 0.4375 -2.234375 L 0.78125 -2.234375 L 0.765625 -1.984375 C 0.878906 -2.097656 0.988281 -2.175781 1.09375 -2.21875 C 1.195312 -2.257812 1.3125 -2.28125 1.4375 -2.28125 C 1.664062 -2.28125 1.832031 -2.21875 1.9375 -2.09375 C 2.039062 -1.96875 2.09375 -1.789062 2.09375 -1.5625 C 2.09375 -1.5 2.078125 -1.375 2.046875 -1.1875 C 2.023438 -1.007812 1.957031 -0.613281 1.84375 0 L 1.4375 0 C 1.539062 -0.613281 1.609375 -1.003906 1.640625 -1.171875 C 1.671875 -1.347656 1.6875 -1.457031 1.6875 -1.5 C 1.6875 -1.644531 1.65625 -1.75 1.59375 -1.8125 C 1.53125 -1.875 1.429688 -1.90625 1.296875 -1.90625 C 1.179688 -1.90625 1.078125 -1.878906 0.984375 -1.828125 C 0.890625 -1.785156 0.8125 -1.71875 0.75 -1.625 L 0.453125 0 L 0.046875 0 Z M 0.4375 -2.234375 "/></g></g></g><g fill="rgb(100%, 100%, 100%)" fill-opacity="1"><g transform="translate(46.090221, 47.684237)"><g><path d="M 2.453125 -3.40625 L 1.84375 0 L 1.46875 0 L 1.484375 -0.28125 C 1.390625 -0.175781 1.285156 -0.09375 1.171875 -0.03125 C 1.066406 0.0195312 0.957031 0.046875 0.84375 0.046875 C 0.695312 0.046875 0.566406 0.00390625 0.453125 -0.078125 C 0.335938 -0.160156 0.25 -0.269531 0.1875 -0.40625 C 0.125 -0.550781 0.09375 -0.710938 0.09375 -0.890625 C 0.09375 -1.117188 0.140625 -1.335938 0.234375 -1.546875 C 0.335938 -1.765625 0.472656 -1.941406 0.640625 -2.078125 C 0.816406 -2.210938 1.007812 -2.28125 1.21875 -2.28125 C 1.351562 -2.28125 1.460938 -2.253906 1.546875 -2.203125 C 1.640625 -2.148438 1.71875 -2.066406 1.78125 -1.953125 L 2.03125 -3.40625 Z M 0.96875 -0.3125 C 1.09375 -0.3125 1.207031 -0.347656 1.3125 -0.421875 C 1.425781 -0.503906 1.515625 -0.613281 1.578125 -0.75 C 1.648438 -0.894531 1.6875 -1.066406 1.6875 -1.265625 C 1.6875 -1.484375 1.644531 -1.644531 1.5625 -1.75 C 1.476562 -1.851562 1.363281 -1.90625 1.21875 -1.90625 C 1.09375 -1.90625 0.972656 -1.859375 0.859375 -1.765625 C 0.753906 -1.679688 0.671875 -1.5625 0.609375 -1.40625 C 0.546875 -1.257812 0.515625 -1.101562 0.515625 -0.9375 C 0.515625 -0.75 0.550781 -0.597656 0.625 -0.484375 C 0.707031 -0.367188 0.820312 -0.3125 0.96875 -0.3125 Z M 0.96875 -0.3125 "/></g></g></g><g fill="rgb(100%, 100%, 100%)" fill-opacity="1"><g transform="translate(48.450795, 47.684237)"><g/></g></g><g fill="rgb(100%, 100%, 100%)" fill-opacity="1"><g transform="translate(49.372326, 47.684237)"><g><path d="M 0.84375 0.046875 C 0.613281 0.046875 0.429688 -0.03125 0.296875 -0.1875 C 0.160156 -0.351562 0.09375 -0.570312 0.09375 -0.84375 C 0.09375 -1.082031 0.144531 -1.3125 0.25 -1.53125 C 0.351562 -1.75 0.492188 -1.925781 0.671875 -2.0625 C 0.847656 -2.207031 1.046875 -2.28125 1.265625 -2.28125 C 1.515625 -2.28125 1.6875 -2.179688 1.78125 -1.984375 L 1.875 -2.234375 L 2.234375 -2.234375 L 1.96875 -0.65625 C 1.957031 -0.59375 1.953125 -0.53125 1.953125 -0.46875 C 1.953125 -0.394531 1.96875 -0.34375 2 -0.3125 C 2.03125 -0.289062 2.085938 -0.28125 2.171875 -0.28125 L 2.046875 0.046875 C 1.941406 0.046875 1.859375 0.0390625 1.796875 0.03125 C 1.734375 0.0195312 1.675781 -0.00390625 1.625 -0.046875 C 1.582031 -0.0976562 1.550781 -0.175781 1.53125 -0.28125 C 1.34375 -0.0625 1.113281 0.046875 0.84375 0.046875 Z M 0.96875 -0.3125 C 1.09375 -0.3125 1.207031 -0.347656 1.3125 -0.421875 C 1.425781 -0.503906 1.515625 -0.613281 1.578125 -0.75 C 1.648438 -0.894531 1.6875 -1.066406 1.6875 -1.265625 C 1.6875 -1.484375 1.644531 -1.644531 1.5625 -1.75 C 1.476562 -1.851562 1.363281 -1.90625 1.21875 -1.90625 C 1.09375 -1.90625 0.972656 -1.859375 0.859375 -1.765625 C 0.753906 -1.679688 0.671875 -1.5625 0.609375 -1.40625 C 0.546875 -1.257812 0.515625 -1.101562 0.515625 -0.9375 C 0.515625 -0.75 0.550781 -0.597656 0.625 -0.484375 C 0.707031 -0.367188 0.820312 -0.3125 0.96875 -0.3125 Z M 0.96875 -0.3125 "/></g></g></g><g fill="rgb(100%, 100%, 100%)" fill-opacity="1"><g transform="translate(51.823687, 47.684237)"><g/></g></g><g fill="rgb(100%, 100%, 100%)" fill-opacity="1"><g transform="translate(52.745219, 47.684237)"><g><path d="M 0.609375 -3.1875 L 1.015625 -3.1875 L 0.9375 -2.734375 L 0.53125 -2.734375 Z M -0.375 0.78125 C -0.289062 0.769531 -0.226562 0.753906 -0.1875 0.734375 C -0.144531 0.710938 -0.109375 0.671875 -0.078125 0.609375 C -0.0546875 0.546875 -0.0351562 0.453125 -0.015625 0.328125 L 0.4375 -2.234375 L 0.84375 -2.234375 L 0.375 0.484375 C 0.332031 0.679688 0.257812 0.820312 0.15625 0.90625 C 0.0507812 1 -0.078125 1.054688 -0.234375 1.078125 L -0.390625 1.09375 Z M -0.375 0.78125 "/></g></g></g><g fill="rgb(100%, 100%, 100%)" fill-opacity="1"><g transform="translate(53.716687, 47.684237)"><g><path d="M 0.9375 0.046875 C 0.664062 0.046875 0.457031 -0.0390625 0.3125 -0.21875 C 0.164062 -0.394531 0.09375 -0.617188 0.09375 -0.890625 C 0.09375 -1.140625 0.144531 -1.367188 0.25 -1.578125 C 0.351562 -1.785156 0.5 -1.953125 0.6875 -2.078125 C 0.875 -2.210938 1.082031 -2.28125 1.3125 -2.28125 C 1.59375 -2.28125 1.800781 -2.191406 1.9375 -2.015625 C 2.082031 -1.835938 2.15625 -1.609375 2.15625 -1.328125 C 2.15625 -1.085938 2.101562 -0.859375 2 -0.640625 C 1.894531 -0.429688 1.75 -0.265625 1.5625 -0.140625 C 1.375 -0.015625 1.164062 0.046875 0.9375 0.046875 Z M 1 -0.3125 C 1.144531 -0.3125 1.273438 -0.351562 1.390625 -0.4375 C 1.503906 -0.53125 1.585938 -0.648438 1.640625 -0.796875 C 1.703125 -0.941406 1.734375 -1.109375 1.734375 -1.296875 C 1.734375 -1.703125 1.578125 -1.90625 1.265625 -1.90625 C 1.109375 -1.90625 0.972656 -1.863281 0.859375 -1.78125 C 0.753906 -1.695312 0.671875 -1.578125 0.609375 -1.421875 C 0.546875 -1.273438 0.515625 -1.113281 0.515625 -0.9375 C 0.515625 -0.519531 0.675781 -0.3125 1 -0.3125 Z M 1 -0.3125 "/></g></g></g><g fill="rgb(100%, 100%, 100%)" fill-opacity="1"><g transform="translate(56.050021, 47.684237)"><g><path d="M 1.125 0.046875 C 0.832031 0.046875 0.625 -0.0625 0.5 -0.28125 L 0.421875 0 L 0.046875 0 L 0.640625 -3.40625 L 1.0625 -3.40625 L 0.8125 -1.984375 C 0.976562 -2.179688 1.1875 -2.28125 1.4375 -2.28125 C 1.675781 -2.28125 1.859375 -2.1875 1.984375 -2 C 2.117188 -1.820312 2.1875 -1.601562 2.1875 -1.34375 C 2.1875 -1.050781 2.132812 -0.800781 2.03125 -0.59375 C 1.9375 -0.382812 1.804688 -0.222656 1.640625 -0.109375 C 1.484375 -0.00390625 1.3125 0.046875 1.125 0.046875 Z M 1.09375 -0.3125 C 1.21875 -0.3125 1.332031 -0.351562 1.4375 -0.4375 C 1.539062 -0.53125 1.617188 -0.648438 1.671875 -0.796875 C 1.734375 -0.941406 1.765625 -1.109375 1.765625 -1.296875 C 1.765625 -1.484375 1.722656 -1.628906 1.640625 -1.734375 C 1.566406 -1.847656 1.457031 -1.90625 1.3125 -1.90625 C 1.195312 -1.90625 1.082031 -1.863281 0.96875 -1.78125 C 0.863281 -1.707031 0.773438 -1.59375 0.703125 -1.4375 C 0.640625 -1.289062 0.609375 -1.117188 0.609375 -0.921875 C 0.609375 -0.710938 0.648438 -0.554688 0.734375 -0.453125 C 0.828125 -0.359375 0.945312 -0.3125 1.09375 -0.3125 Z M 1.09375 -0.3125 "/></g></g></g><g fill="rgb(100%, 100%, 100%)" fill-opacity="1"><g transform="translate(58.410595, 47.684237)"><g/></g></g><g fill="rgb(100%, 100%, 100%)" fill-opacity="1"><g transform="translate(59.332126, 47.684237)"><g><path d="M 0.21875 -2.234375 L 0.671875 -2.234375 L 0.734375 -0.453125 L 1.453125 -2.15625 L 1.84375 -2.15625 L 1.953125 -0.453125 L 2.640625 -2.234375 L 3.09375 -2.234375 L 2.109375 0 L 1.6875 0 L 1.5625 -1.640625 L 0.84375 0 L 0.4375 0 Z M 0.21875 -2.234375 "/></g></g></g><g fill="rgb(100%, 100%, 100%)" fill-opacity="1"><g transform="translate(62.337317, 47.684237)"><g><path d="M 0.609375 -3.1875 L 1.015625 -3.1875 L 0.9375 -2.734375 L 0.53125 -2.734375 Z M 0.4375 -2.234375 L 0.84375 -2.234375 L 0.453125 0 L 0.046875 0 Z M 0.4375 -2.234375 "/></g></g></g><g fill="rgb(100%, 100%, 100%)" fill-opacity="1"><g transform="translate(63.308785, 47.684237)"><g><path d="M 0.671875 0.046875 C 0.515625 0.046875 0.398438 0.0078125 0.328125 -0.0625 C 0.265625 -0.144531 0.234375 -0.25 0.234375 -0.375 C 0.234375 -0.425781 0.316406 -0.9375 0.484375 -1.90625 L 0.15625 -1.90625 L 0.25 -2.234375 L 0.546875 -2.234375 L 0.640625 -2.78125 L 1.0625 -2.8125 L 0.953125 -2.234375 L 1.453125 -2.234375 L 1.40625 -1.90625 L 0.890625 -1.90625 C 0.804688 -1.394531 0.742188 -1.035156 0.703125 -0.828125 C 0.671875 -0.617188 0.65625 -0.492188 0.65625 -0.453125 C 0.65625 -0.378906 0.675781 -0.332031 0.71875 -0.3125 C 0.757812 -0.289062 0.851562 -0.28125 1 -0.28125 L 1.109375 -0.28125 L 1.015625 0.046875 Z M 0.671875 0.046875 "/></g></g></g><g fill="rgb(100%, 100%, 100%)" fill-opacity="1"><g transform="translate(64.684274, 47.684237)"><g><path d="M 0.640625 -3.40625 L 1.0625 -3.40625 L 0.8125 -1.984375 C 0.90625 -2.085938 1 -2.160156 1.09375 -2.203125 C 1.195312 -2.253906 1.316406 -2.28125 1.453125 -2.28125 C 1.648438 -2.28125 1.800781 -2.210938 1.90625 -2.078125 C 2.007812 -1.941406 2.0625 -1.773438 2.0625 -1.578125 C 2.0625 -1.460938 2.039062 -1.3125 2 -1.125 L 1.8125 0 L 1.390625 0 L 1.59375 -1.109375 C 1.625 -1.304688 1.640625 -1.445312 1.640625 -1.53125 C 1.640625 -1.644531 1.609375 -1.734375 1.546875 -1.796875 C 1.484375 -1.867188 1.394531 -1.90625 1.28125 -1.90625 C 1.175781 -1.90625 1.078125 -1.878906 0.984375 -1.828125 C 0.898438 -1.785156 0.820312 -1.71875 0.75 -1.625 L 0.453125 0 L 0.046875 0 Z M 0.640625 -3.40625 "/></g></g></g><g fill="rgb(100%, 100%, 100%)" fill-opacity="1"><g transform="translate(66.981289, 47.684237)"><g><path d="M 0.609375 -3.1875 L 1.015625 -3.1875 L 0.9375 -2.734375 L 0.53125 -2.734375 Z M 0.4375 -2.234375 L 0.84375 -2.234375 L 0.453125 0 L 0.046875 0 Z M 0.4375 -2.234375 "/></g></g></g><g fill="rgb(100%, 100%, 100%)" fill-opacity="1"><g transform="translate(67.952757, 47.684237)"><g><path d="M 0.4375 -2.234375 L 0.78125 -2.234375 L 0.765625 -1.984375 C 0.878906 -2.097656 0.988281 -2.175781 1.09375 -2.21875 C 1.195312 -2.257812 1.3125 -2.28125 1.4375 -2.28125 C 1.664062 -2.28125 1.832031 -2.21875 1.9375 -2.09375 C 2.039062 -1.96875 2.09375 -1.789062 2.09375 -1.5625 C 2.09375 -1.5 2.078125 -1.375 2.046875 -1.1875 C 2.023438 -1.007812 1.957031 -0.613281 1.84375 0 L 1.4375 0 C 1.539062 -0.613281 1.609375 -1.003906 1.640625 -1.171875 C 1.671875 -1.347656 1.6875 -1.457031 1.6875 -1.5 C 1.6875 -1.644531 1.65625 -1.75 1.59375 -1.8125 C 1.53125 -1.875 1.429688 -1.90625 1.296875 -1.90625 C 1.179688 -1.90625 1.078125 -1.878906 0.984375 -1.828125 C 0.890625 -1.785156 0.8125 -1.71875 0.75 -1.625 L 0.453125 0 L 0.046875 0 Z M 0.4375 -2.234375 "/></g></g></g><g fill="rgb(100%, 100%, 100%)" fill-opacity="1"><g transform="translate(70.290628, 47.684237)"><g/></g></g><g fill="rgb(100%, 100%, 100%)" fill-opacity="1"><g transform="translate(71.21216, 47.684237)"><g><path d="M 0.671875 0.046875 C 0.515625 0.046875 0.398438 0.0078125 0.328125 -0.0625 C 0.265625 -0.144531 0.234375 -0.25 0.234375 -0.375 C 0.234375 -0.425781 0.316406 -0.9375 0.484375 -1.90625 L 0.15625 -1.90625 L 0.25 -2.234375 L 0.546875 -2.234375 L 0.640625 -2.78125 L 1.0625 -2.8125 L 0.953125 -2.234375 L 1.453125 -2.234375 L 1.40625 -1.90625 L 0.890625 -1.90625 C 0.804688 -1.394531 0.742188 -1.035156 0.703125 -0.828125 C 0.671875 -0.617188 0.65625 -0.492188 0.65625 -0.453125 C 0.65625 -0.378906 0.675781 -0.332031 0.71875 -0.3125 C 0.757812 -0.289062 0.851562 -0.28125 1 -0.28125 L 1.109375 -0.28125 L 1.015625 0.046875 Z M 0.671875 0.046875 "/></g></g></g><g fill="rgb(100%, 100%, 100%)" fill-opacity="1"><g transform="translate(72.587649, 47.684237)"><g><path d="M 0.640625 -3.40625 L 1.0625 -3.40625 L 0.8125 -1.984375 C 0.90625 -2.085938 1 -2.160156 1.09375 -2.203125 C 1.195312 -2.253906 1.316406 -2.28125 1.453125 -2.28125 C 1.648438 -2.28125 1.800781 -2.210938 1.90625 -2.078125 C 2.007812 -1.941406 2.0625 -1.773438 2.0625 -1.578125 C 2.0625 -1.460938 2.039062 -1.3125 2 -1.125 L 1.8125 0 L 1.390625 0 L 1.59375 -1.109375 C 1.625 -1.304688 1.640625 -1.445312 1.640625 -1.53125 C 1.640625 -1.644531 1.609375 -1.734375 1.546875 -1.796875 C 1.484375 -1.867188 1.394531 -1.90625 1.28125 -1.90625 C 1.175781 -1.90625 1.078125 -1.878906 0.984375 -1.828125 C 0.898438 -1.785156 0.820312 -1.71875 0.75 -1.625 L 0.453125 0 L 0.046875 0 Z M 0.640625 -3.40625 "/></g></g></g><g fill="rgb(100%, 100%, 100%)" fill-opacity="1"><g transform="translate(74.884664, 47.684237)"><g><path d="M 1 0.046875 C 0.707031 0.046875 0.484375 -0.0390625 0.328125 -0.21875 C 0.171875 -0.394531 0.09375 -0.628906 0.09375 -0.921875 C 0.09375 -1.148438 0.144531 -1.367188 0.25 -1.578125 C 0.351562 -1.785156 0.492188 -1.953125 0.671875 -2.078125 C 0.859375 -2.210938 1.070312 -2.28125 1.3125 -2.28125 C 1.519531 -2.28125 1.679688 -2.226562 1.796875 -2.125 C 1.910156 -2.019531 1.96875 -1.878906 1.96875 -1.703125 C 1.96875 -1.578125 1.9375 -1.457031 1.875 -1.34375 C 1.8125 -1.226562 1.703125 -1.132812 1.546875 -1.0625 C 1.390625 -0.988281 1.1875 -0.953125 0.9375 -0.953125 C 0.863281 -0.953125 0.785156 -0.957031 0.703125 -0.96875 C 0.628906 -0.976562 0.570312 -0.984375 0.53125 -0.984375 C 0.53125 -0.742188 0.582031 -0.570312 0.6875 -0.46875 C 0.789062 -0.363281 0.929688 -0.3125 1.109375 -0.3125 C 1.203125 -0.3125 1.304688 -0.320312 1.421875 -0.34375 C 1.535156 -0.375 1.640625 -0.410156 1.734375 -0.453125 L 1.703125 -0.125 C 1.503906 -0.0078125 1.269531 0.046875 1 0.046875 Z M 0.90625 -1.234375 C 1.144531 -1.234375 1.316406 -1.273438 1.421875 -1.359375 C 1.535156 -1.441406 1.59375 -1.539062 1.59375 -1.65625 C 1.59375 -1.738281 1.5625 -1.800781 1.5 -1.84375 C 1.445312 -1.882812 1.367188 -1.90625 1.265625 -1.90625 C 1.117188 -1.90625 0.988281 -1.851562 0.875 -1.75 C 0.757812 -1.644531 0.660156 -1.488281 0.578125 -1.28125 C 0.671875 -1.25 0.78125 -1.234375 0.90625 -1.234375 Z M 0.90625 -1.234375 "/></g></g></g><g fill="rgb(100%, 100%, 100%)" fill-opacity="1"><g transform="translate(76.96378, 47.684237)"><g/></g></g><g fill="rgb(100%, 100%, 100%)" fill-opacity="1"><g transform="translate(77.885311, 47.684237)"><g><path d="M 1 0.046875 C 0.707031 0.046875 0.484375 -0.0390625 0.328125 -0.21875 C 0.171875 -0.394531 0.09375 -0.628906 0.09375 -0.921875 C 0.09375 -1.148438 0.144531 -1.367188 0.25 -1.578125 C 0.351562 -1.785156 0.492188 -1.953125 0.671875 -2.078125 C 0.859375 -2.210938 1.070312 -2.28125 1.3125 -2.28125 C 1.519531 -2.28125 1.679688 -2.226562 1.796875 -2.125 C 1.910156 -2.019531 1.96875 -1.878906 1.96875 -1.703125 C 1.96875 -1.578125 1.9375 -1.457031 1.875 -1.34375 C 1.8125 -1.226562 1.703125 -1.132812 1.546875 -1.0625 C 1.390625 -0.988281 1.1875 -0.953125 0.9375 -0.953125 C 0.863281 -0.953125 0.785156 -0.957031 0.703125 -0.96875 C 0.628906 -0.976562 0.570312 -0.984375 0.53125 -0.984375 C 0.53125 -0.742188 0.582031 -0.570312 0.6875 -0.46875 C 0.789062 -0.363281 0.929688 -0.3125 1.109375 -0.3125 C 1.203125 -0.3125 1.304688 -0.320312 1.421875 -0.34375 C 1.535156 -0.375 1.640625 -0.410156 1.734375 -0.453125 L 1.703125 -0.125 C 1.503906 -0.0078125 1.269531 0.046875 1 0.046875 Z M 0.90625 -1.234375 C 1.144531 -1.234375 1.316406 -1.273438 1.421875 -1.359375 C 1.535156 -1.441406 1.59375 -1.539062 1.59375 -1.65625 C 1.59375 -1.738281 1.5625 -1.800781 1.5 -1.84375 C 1.445312 -1.882812 1.367188 -1.90625 1.265625 -1.90625 C 1.117188 -1.90625 0.988281 -1.851562 0.875 -1.75 C 0.757812 -1.644531 0.660156 -1.488281 0.578125 -1.28125 C 0.671875 -1.25 0.78125 -1.234375 0.90625 -1.234375 Z M 0.90625 -1.234375 "/></g></g></g><g fill="rgb(100%, 100%, 100%)" fill-opacity="1"><g transform="translate(79.964427, 47.684237)"><g><path d="M 0.953125 0.046875 C 0.660156 0.046875 0.445312 -0.0390625 0.3125 -0.21875 C 0.175781 -0.394531 0.109375 -0.625 0.109375 -0.90625 C 0.109375 -1.144531 0.15625 -1.367188 0.25 -1.578125 C 0.34375 -1.785156 0.484375 -1.953125 0.671875 -2.078125 C 0.867188 -2.210938 1.097656 -2.28125 1.359375 -2.28125 C 1.472656 -2.28125 1.578125 -2.265625 1.671875 -2.234375 C 1.773438 -2.210938 1.859375 -2.179688 1.921875 -2.140625 L 1.8125 -1.765625 C 1.664062 -1.859375 1.515625 -1.90625 1.359375 -1.90625 C 1.085938 -1.90625 0.878906 -1.816406 0.734375 -1.640625 C 0.597656 -1.460938 0.53125 -1.238281 0.53125 -0.96875 C 0.53125 -0.757812 0.578125 -0.597656 0.671875 -0.484375 C 0.765625 -0.367188 0.90625 -0.3125 1.09375 -0.3125 C 1.238281 -0.3125 1.398438 -0.359375 1.578125 -0.453125 L 1.5625 -0.09375 C 1.382812 0 1.179688 0.046875 0.953125 0.046875 Z M 0.953125 0.046875 "/></g></g></g><g fill="rgb(100%, 100%, 100%)" fill-opacity="1"><g transform="translate(81.861964, 47.684237)"><g><path d="M 0.9375 0.046875 C 0.664062 0.046875 0.457031 -0.0390625 0.3125 -0.21875 C 0.164062 -0.394531 0.09375 -0.617188 0.09375 -0.890625 C 0.09375 -1.140625 0.144531 -1.367188 0.25 -1.578125 C 0.351562 -1.785156 0.5 -1.953125 0.6875 -2.078125 C 0.875 -2.210938 1.082031 -2.28125 1.3125 -2.28125 C 1.59375 -2.28125 1.800781 -2.191406 1.9375 -2.015625 C 2.082031 -1.835938 2.15625 -1.609375 2.15625 -1.328125 C 2.15625 -1.085938 2.101562 -0.859375 2 -0.640625 C 1.894531 -0.429688 1.75 -0.265625 1.5625 -0.140625 C 1.375 -0.015625 1.164062 0.046875 0.9375 0.046875 Z M 1 -0.3125 C 1.144531 -0.3125 1.273438 -0.351562 1.390625 -0.4375 C 1.503906 -0.53125 1.585938 -0.648438 1.640625 -0.796875 C 1.703125 -0.941406 1.734375 -1.109375 1.734375 -1.296875 C 1.734375 -1.703125 1.578125 -1.90625 1.265625 -1.90625 C 1.109375 -1.90625 0.972656 -1.863281 0.859375 -1.78125 C 0.753906 -1.695312 0.671875 -1.578125 0.609375 -1.421875 C 0.546875 -1.273438 0.515625 -1.113281 0.515625 -0.9375 C 0.515625 -0.519531 0.675781 -0.3125 1 -0.3125 Z M 1 -0.3125 "/></g></g></g><g fill="rgb(100%, 100%, 100%)" fill-opacity="1"><g transform="translate(84.195298, 47.684237)"><g><path d="M 0.4375 -2.234375 L 0.765625 -2.234375 L 0.765625 -1.984375 C 0.867188 -2.097656 0.96875 -2.175781 1.0625 -2.21875 C 1.164062 -2.257812 1.269531 -2.28125 1.375 -2.28125 C 1.519531 -2.28125 1.644531 -2.242188 1.75 -2.171875 C 1.851562 -2.109375 1.925781 -1.992188 1.96875 -1.828125 C 2.144531 -2.128906 2.410156 -2.28125 2.765625 -2.28125 C 3.203125 -2.28125 3.421875 -2.066406 3.421875 -1.640625 C 3.421875 -1.585938 3.398438 -1.441406 3.359375 -1.203125 C 3.316406 -0.960938 3.25 -0.5625 3.15625 0 L 2.734375 0 C 2.828125 -0.539062 2.890625 -0.921875 2.921875 -1.140625 C 2.960938 -1.367188 2.984375 -1.503906 2.984375 -1.546875 C 2.984375 -1.671875 2.953125 -1.757812 2.890625 -1.8125 C 2.835938 -1.875 2.753906 -1.90625 2.640625 -1.90625 C 2.441406 -1.90625 2.296875 -1.84375 2.203125 -1.71875 C 2.117188 -1.601562 2.0625 -1.460938 2.03125 -1.296875 L 1.8125 0 L 1.390625 0 C 1.503906 -0.613281 1.570312 -1.007812 1.59375 -1.1875 C 1.625 -1.363281 1.640625 -1.472656 1.640625 -1.515625 C 1.640625 -1.660156 1.609375 -1.757812 1.546875 -1.8125 C 1.484375 -1.875 1.394531 -1.90625 1.28125 -1.90625 C 1.050781 -1.90625 0.875 -1.8125 0.75 -1.625 L 0.453125 0 L 0.046875 0 Z M 0.4375 -2.234375 "/></g></g></g><g fill="rgb(100%, 100%, 100%)" fill-opacity="1"><g transform="translate(87.831483, 47.684237)"><g><path d="M 0.4375 -2.234375 L 0.765625 -2.234375 L 0.765625 -1.984375 C 0.867188 -2.097656 0.96875 -2.175781 1.0625 -2.21875 C 1.164062 -2.257812 1.269531 -2.28125 1.375 -2.28125 C 1.519531 -2.28125 1.644531 -2.242188 1.75 -2.171875 C 1.851562 -2.109375 1.925781 -1.992188 1.96875 -1.828125 C 2.144531 -2.128906 2.410156 -2.28125 2.765625 -2.28125 C 3.203125 -2.28125 3.421875 -2.066406 3.421875 -1.640625 C 3.421875 -1.585938 3.398438 -1.441406 3.359375 -1.203125 C 3.316406 -0.960938 3.25 -0.5625 3.15625 0 L 2.734375 0 C 2.828125 -0.539062 2.890625 -0.921875 2.921875 -1.140625 C 2.960938 -1.367188 2.984375 -1.503906 2.984375 -1.546875 C 2.984375 -1.671875 2.953125 -1.757812 2.890625 -1.8125 C 2.835938 -1.875 2.753906 -1.90625 2.640625 -1.90625 C 2.441406 -1.90625 2.296875 -1.84375 2.203125 -1.71875 C 2.117188 -1.601562 2.0625 -1.460938 2.03125 -1.296875 L 1.8125 0 L 1.390625 0 C 1.503906 -0.613281 1.570312 -1.007812 1.59375 -1.1875 C 1.625 -1.363281 1.640625 -1.472656 1.640625 -1.515625 C 1.640625 -1.660156 1.609375 -1.757812 1.546875 -1.8125 C 1.484375 -1.875 1.394531 -1.90625 1.28125 -1.90625 C 1.050781 -1.90625 0.875 -1.8125 0.75 -1.625 L 0.453125 0 L 0.046875 0 Z M 0.4375 -2.234375 "/></g></g></g><g fill="rgb(100%, 100%, 100%)" fill-opacity="1"><g transform="translate(91.467668, 47.684237)"><g><path d="M 1 0.046875 C 0.707031 0.046875 0.484375 -0.0390625 0.328125 -0.21875 C 0.171875 -0.394531 0.09375 -0.628906 0.09375 -0.921875 C 0.09375 -1.148438 0.144531 -1.367188 0.25 -1.578125 C 0.351562 -1.785156 0.492188 -1.953125 0.671875 -2.078125 C 0.859375 -2.210938 1.070312 -2.28125 1.3125 -2.28125 C 1.519531 -2.28125 1.679688 -2.226562 1.796875 -2.125 C 1.910156 -2.019531 1.96875 -1.878906 1.96875 -1.703125 C 1.96875 -1.578125 1.9375 -1.457031 1.875 -1.34375 C 1.8125 -1.226562 1.703125 -1.132812 1.546875 -1.0625 C 1.390625 -0.988281 1.1875 -0.953125 0.9375 -0.953125 C 0.863281 -0.953125 0.785156 -0.957031 0.703125 -0.96875 C 0.628906 -0.976562 0.570312 -0.984375 0.53125 -0.984375 C 0.53125 -0.742188 0.582031 -0.570312 0.6875 -0.46875 C 0.789062 -0.363281 0.929688 -0.3125 1.109375 -0.3125 C 1.203125 -0.3125 1.304688 -0.320312 1.421875 -0.34375 C 1.535156 -0.375 1.640625 -0.410156 1.734375 -0.453125 L 1.703125 -0.125 C 1.503906 -0.0078125 1.269531 0.046875 1 0.046875 Z M 0.90625 -1.234375 C 1.144531 -1.234375 1.316406 -1.273438 1.421875 -1.359375 C 1.535156 -1.441406 1.59375 -1.539062 1.59375 -1.65625 C 1.59375 -1.738281 1.5625 -1.800781 1.5 -1.84375 C 1.445312 -1.882812 1.367188 -1.90625 1.265625 -1.90625 C 1.117188 -1.90625 0.988281 -1.851562 0.875 -1.75 C 0.757812 -1.644531 0.660156 -1.488281 0.578125 -1.28125 C 0.671875 -1.25 0.78125 -1.234375 0.90625 -1.234375 Z M 0.90625 -1.234375 "/></g></g></g><g fill="rgb(100%, 100%, 100%)" fill-opacity="1"><g transform="translate(93.546784, 47.684237)"><g><path d="M 0.4375 -2.234375 L 0.796875 -2.234375 L 0.765625 -1.859375 C 0.890625 -2.015625 1.007812 -2.128906 1.125 -2.203125 C 1.25 -2.273438 1.367188 -2.3125 1.484375 -2.3125 L 1.546875 -2.3125 L 1.375 -1.859375 L 1.234375 -1.859375 C 1.148438 -1.859375 1.0625 -1.828125 0.96875 -1.765625 C 0.875 -1.710938 0.800781 -1.648438 0.75 -1.578125 L 0.46875 0 L 0.046875 0 Z M 0.4375 -2.234375 "/></g></g></g><g fill="rgb(100%, 100%, 100%)" fill-opacity="1"><g transform="translate(94.940427, 47.684237)"><g><path d="M 0.953125 0.046875 C 0.660156 0.046875 0.445312 -0.0390625 0.3125 -0.21875 C 0.175781 -0.394531 0.109375 -0.625 0.109375 -0.90625 C 0.109375 -1.144531 0.15625 -1.367188 0.25 -1.578125 C 0.34375 -1.785156 0.484375 -1.953125 0.671875 -2.078125 C 0.867188 -2.210938 1.097656 -2.28125 1.359375 -2.28125 C 1.472656 -2.28125 1.578125 -2.265625 1.671875 -2.234375 C 1.773438 -2.210938 1.859375 -2.179688 1.921875 -2.140625 L 1.8125 -1.765625 C 1.664062 -1.859375 1.515625 -1.90625 1.359375 -1.90625 C 1.085938 -1.90625 0.878906 -1.816406 0.734375 -1.640625 C 0.597656 -1.460938 0.53125 -1.238281 0.53125 -0.96875 C 0.53125 -0.757812 0.578125 -0.597656 0.671875 -0.484375 C 0.765625 -0.367188 0.90625 -0.3125 1.09375 -0.3125 C 1.238281 -0.3125 1.398438 -0.359375 1.578125 -0.453125 L 1.5625 -0.09375 C 1.382812 0 1.179688 0.046875 0.953125 0.046875 Z M 0.953125 0.046875 "/></g></g></g><g fill="rgb(100%, 100%, 100%)" fill-opacity="1"><g transform="translate(96.837963, 47.684237)"><g><path d="M 1 0.046875 C 0.707031 0.046875 0.484375 -0.0390625 0.328125 -0.21875 C 0.171875 -0.394531 0.09375 -0.628906 0.09375 -0.921875 C 0.09375 -1.148438 0.144531 -1.367188 0.25 -1.578125 C 0.351562 -1.785156 0.492188 -1.953125 0.671875 -2.078125 C 0.859375 -2.210938 1.070312 -2.28125 1.3125 -2.28125 C 1.519531 -2.28125 1.679688 -2.226562 1.796875 -2.125 C 1.910156 -2.019531 1.96875 -1.878906 1.96875 -1.703125 C 1.96875 -1.578125 1.9375 -1.457031 1.875 -1.34375 C 1.8125 -1.226562 1.703125 -1.132812 1.546875 -1.0625 C 1.390625 -0.988281 1.1875 -0.953125 0.9375 -0.953125 C 0.863281 -0.953125 0.785156 -0.957031 0.703125 -0.96875 C 0.628906 -0.976562 0.570312 -0.984375 0.53125 -0.984375 C 0.53125 -0.742188 0.582031 -0.570312 0.6875 -0.46875 C 0.789062 -0.363281 0.929688 -0.3125 1.109375 -0.3125 C 1.203125 -0.3125 1.304688 -0.320312 1.421875 -0.34375 C 1.535156 -0.375 1.640625 -0.410156 1.734375 -0.453125 L 1.703125 -0.125 C 1.503906 -0.0078125 1.269531 0.046875 1 0.046875 Z M 0.90625 -1.234375 C 1.144531 -1.234375 1.316406 -1.273438 1.421875 -1.359375 C 1.535156 -1.441406 1.59375 -1.539062 1.59375 -1.65625 C 1.59375 -1.738281 1.5625 -1.800781 1.5 -1.84375 C 1.445312 -1.882812 1.367188 -1.90625 1.265625 -1.90625 C 1.117188 -1.90625 0.988281 -1.851562 0.875 -1.75 C 0.757812 -1.644531 0.660156 -1.488281 0.578125 -1.28125 C 0.671875 -1.25 0.78125 -1.234375 0.90625 -1.234375 Z M 0.90625 -1.234375 "/></g></g></g><g fill="rgb(100%, 100%, 100%)" fill-opacity="1"><g transform="translate(98.917079, 47.684237)"><g/></g></g><g fill="rgb(100%, 100%, 100%)" fill-opacity="1"><g transform="translate(99.838611, 47.684237)"><g><path d="M 0.4375 -2.234375 L 0.78125 -2.234375 L 0.765625 -1.984375 C 0.878906 -2.097656 0.988281 -2.175781 1.09375 -2.21875 C 1.195312 -2.257812 1.3125 -2.28125 1.4375 -2.28125 C 1.664062 -2.28125 1.832031 -2.21875 1.9375 -2.09375 C 2.039062 -1.96875 2.09375 -1.789062 2.09375 -1.5625 C 2.09375 -1.5 2.078125 -1.375 2.046875 -1.1875 C 2.023438 -1.007812 1.957031 -0.613281 1.84375 0 L 1.4375 0 C 1.539062 -0.613281 1.609375 -1.003906 1.640625 -1.171875 C 1.671875 -1.347656 1.6875 -1.457031 1.6875 -1.5 C 1.6875 -1.644531 1.65625 -1.75 1.59375 -1.8125 C 1.53125 -1.875 1.429688 -1.90625 1.296875 -1.90625 C 1.179688 -1.90625 1.078125 -1.878906 0.984375 -1.828125 C 0.890625 -1.785156 0.8125 -1.71875 0.75 -1.625 L 0.453125 0 L 0.046875 0 Z M 0.4375 -2.234375 "/></g></g></g><g fill="rgb(100%, 100%, 100%)" fill-opacity="1"><g transform="translate(102.176482, 47.684237)"><g><path d="M 0.609375 -3.1875 L 1.015625 -3.1875 L 0.9375 -2.734375 L 0.53125 -2.734375 Z M 0.4375 -2.234375 L 0.84375 -2.234375 L 0.453125 0 L 0.046875 0 Z M 0.4375 -2.234375 "/></g></g></g><g fill="rgb(100%, 100%, 100%)" fill-opacity="1"><g transform="translate(103.14795, 47.684237)"><g><path d="M 0.953125 0.046875 C 0.660156 0.046875 0.445312 -0.0390625 0.3125 -0.21875 C 0.175781 -0.394531 0.109375 -0.625 0.109375 -0.90625 C 0.109375 -1.144531 0.15625 -1.367188 0.25 -1.578125 C 0.34375 -1.785156 0.484375 -1.953125 0.671875 -2.078125 C 0.867188 -2.210938 1.097656 -2.28125 1.359375 -2.28125 C 1.472656 -2.28125 1.578125 -2.265625 1.671875 -2.234375 C 1.773438 -2.210938 1.859375 -2.179688 1.921875 -2.140625 L 1.8125 -1.765625 C 1.664062 -1.859375 1.515625 -1.90625 1.359375 -1.90625 C 1.085938 -1.90625 0.878906 -1.816406 0.734375 -1.640625 C 0.597656 -1.460938 0.53125 -1.238281 0.53125 -0.96875 C 0.53125 -0.757812 0.578125 -0.597656 0.671875 -0.484375 C 0.765625 -0.367188 0.90625 -0.3125 1.09375 -0.3125 C 1.238281 -0.3125 1.398438 -0.359375 1.578125 -0.453125 L 1.5625 -0.09375 C 1.382812 0 1.179688 0.046875 0.953125 0.046875 Z M 0.953125 0.046875 "/></g></g></g><g fill="rgb(100%, 100%, 100%)" fill-opacity="1"><g transform="translate(105.045487, 47.684237)"><g><path d="M 0.640625 -3.40625 L 1.0625 -3.40625 L 0.8125 -1.984375 C 0.90625 -2.085938 1 -2.160156 1.09375 -2.203125 C 1.195312 -2.253906 1.316406 -2.28125 1.453125 -2.28125 C 1.648438 -2.28125 1.800781 -2.210938 1.90625 -2.078125 C 2.007812 -1.941406 2.0625 -1.773438 2.0625 -1.578125 C 2.0625 -1.460938 2.039062 -1.3125 2 -1.125 L 1.8125 0 L 1.390625 0 L 1.59375 -1.109375 C 1.625 -1.304688 1.640625 -1.445312 1.640625 -1.53125 C 1.640625 -1.644531 1.609375 -1.734375 1.546875 -1.796875 C 1.484375 -1.867188 1.394531 -1.90625 1.28125 -1.90625 C 1.175781 -1.90625 1.078125 -1.878906 0.984375 -1.828125 C 0.898438 -1.785156 0.820312 -1.71875 0.75 -1.625 L 0.453125 0 L 0.046875 0 Z M 0.640625 -3.40625 "/></g></g></g><g fill="rgb(100%, 100%, 100%)" fill-opacity="1"><g transform="translate(107.342502, 47.684237)"><g><path d="M 1 0.046875 C 0.707031 0.046875 0.484375 -0.0390625 0.328125 -0.21875 C 0.171875 -0.394531 0.09375 -0.628906 0.09375 -0.921875 C 0.09375 -1.148438 0.144531 -1.367188 0.25 -1.578125 C 0.351562 -1.785156 0.492188 -1.953125 0.671875 -2.078125 C 0.859375 -2.210938 1.070312 -2.28125 1.3125 -2.28125 C 1.519531 -2.28125 1.679688 -2.226562 1.796875 -2.125 C 1.910156 -2.019531 1.96875 -1.878906 1.96875 -1.703125 C 1.96875 -1.578125 1.9375 -1.457031 1.875 -1.34375 C 1.8125 -1.226562 1.703125 -1.132812 1.546875 -1.0625 C 1.390625 -0.988281 1.1875 -0.953125 0.9375 -0.953125 C 0.863281 -0.953125 0.785156 -0.957031 0.703125 -0.96875 C 0.628906 -0.976562 0.570312 -0.984375 0.53125 -0.984375 C 0.53125 -0.742188 0.582031 -0.570312 0.6875 -0.46875 C 0.789062 -0.363281 0.929688 -0.3125 1.109375 -0.3125 C 1.203125 -0.3125 1.304688 -0.320312 1.421875 -0.34375 C 1.535156 -0.375 1.640625 -0.410156 1.734375 -0.453125 L 1.703125 -0.125 C 1.503906 -0.0078125 1.269531 0.046875 1 0.046875 Z M 0.90625 -1.234375 C 1.144531 -1.234375 1.316406 -1.273438 1.421875 -1.359375 C 1.535156 -1.441406 1.59375 -1.539062 1.59375 -1.65625 C 1.59375 -1.738281 1.5625 -1.800781 1.5 -1.84375 C 1.445312 -1.882812 1.367188 -1.90625 1.265625 -1.90625 C 1.117188 -1.90625 0.988281 -1.851562 0.875 -1.75 C 0.757812 -1.644531 0.660156 -1.488281 0.578125 -1.28125 C 0.671875 -1.25 0.78125 -1.234375 0.90625 -1.234375 Z M 0.90625 -1.234375 "/></g></g></g></svg>