<svg xmlns="http://www.w3.org/2000/svg" xmlns:xlink="http://www.w3.org/1999/xlink" width="200" zoomAndPan="magnify" viewBox="0 0 150 74.999997" height="100" preserveAspectRatio="xMidYMid meet" version="1.0"><defs><g/></defs><g fill="rgb(100%, 100%, 100%)" fill-opacity="1"><g transform="translate(7.136721, 41.737214)"><g><path d="M 1.421875 -6.125 L 1.421875 -11.796875 C 1.421875 -13.796875 1.335938 -15.863281 1.171875 -18 C 1.867188 -18.144531 2.59375 -18.21875 3.34375 -18.21875 C 4.03125 -18.21875 4.613281 -18.097656 5.09375 -17.859375 C 5.582031 -17.617188 5.828125 -17.242188 5.828125 -16.734375 C 5.828125 -16.640625 5.796875 -15.914062 5.734375 -14.5625 C 5.671875 -13.207031 5.640625 -12.066406 5.640625 -11.140625 L 5.640625 -5.765625 C 5.640625 -4.359375 5.707031 -3.367188 5.84375 -2.796875 C 6.644531 -2.753906 7.304688 -2.734375 7.828125 -2.734375 C 10.796875 -2.734375 12.707031 -2.941406 13.5625 -3.359375 C 13.78125 -2.804688 13.890625 -2.179688 13.890625 -1.484375 C 13.890625 -0.859375 13.644531 -0.445312 13.15625 -0.25 C 12.675781 -0.0507812 11.71875 0.046875 10.28125 0.046875 C 5.925781 0.046875 3.398438 0.03125 2.703125 0 C 2.171875 -0.0195312 1.8125 -0.144531 1.625 -0.375 C 1.445312 -0.613281 1.359375 -1.007812 1.359375 -1.5625 C 1.359375 -2.175781 1.367188 -3 1.390625 -4.03125 C 1.410156 -5.0625 1.421875 -5.757812 1.421875 -6.125 Z M 1.421875 -6.125 "/></g></g></g><g fill="rgb(100%, 100%, 100%)" fill-opacity="1"><g transform="translate(21.020235, 41.737214)"><g><path d="M 3.5 -14.21875 C 2.800781 -14.21875 2.210938 -14.457031 1.734375 -14.9375 C 1.253906 -15.425781 1.015625 -16.039062 1.015625 -16.78125 C 1.015625 -17.488281 1.265625 -18.085938 1.765625 -18.578125 C 2.273438 -19.078125 2.867188 -19.328125 3.546875 -19.328125 C 4.222656 -19.328125 4.800781 -19.078125 5.28125 -18.578125 C 5.769531 -18.085938 6.015625 -17.488281 6.015625 -16.78125 C 6.015625 -16.0625 5.757812 -15.453125 5.25 -14.953125 C 4.738281 -14.460938 4.15625 -14.21875 3.5 -14.21875 Z M 3.546875 -13.078125 C 4.242188 -13.078125 4.78125 -12.957031 5.15625 -12.71875 C 5.539062 -12.476562 5.734375 -12.015625 5.734375 -11.328125 C 5.734375 -11.210938 5.703125 -10.40625 5.640625 -8.90625 C 5.578125 -7.414062 5.546875 -6.296875 5.546875 -5.546875 C 5.546875 -2.960938 5.703125 -1.203125 6.015625 -0.265625 C 5.253906 -0.0351562 4.5 0.078125 3.75 0.078125 C 2.882812 0.078125 2.285156 -0.0664062 1.953125 -0.359375 C 1.617188 -0.660156 1.453125 -1.109375 1.453125 -1.703125 C 1.453125 -1.992188 1.460938 -2.675781 1.484375 -3.75 C 1.515625 -4.820312 1.53125 -5.675781 1.53125 -6.3125 C 1.53125 -8.925781 1.460938 -11.054688 1.328125 -12.703125 C 2.023438 -12.953125 2.765625 -13.078125 3.546875 -13.078125 Z M 3.546875 -13.078125 "/></g></g></g><g fill="rgb(100%, 100%, 100%)" fill-opacity="1"><g transform="translate(28.042089, 41.737214)"><g><path d="M 7.171875 -2.703125 C 6.859375 -2.703125 6.46875 -2.722656 6 -2.765625 C 5.8125 -2.273438 5.71875 -1.921875 5.71875 -1.703125 C 5.71875 -1.328125 6.316406 -1.140625 7.515625 -1.140625 L 10.6875 -1.140625 C 11.820312 -1.140625 12.78125 -0.863281 13.5625 -0.3125 C 14.34375 0.238281 14.734375 1.109375 14.734375 2.296875 C 14.734375 3.671875 13.953125 4.78125 12.390625 5.625 C 10.828125 6.46875 8.941406 6.890625 6.734375 6.890625 C 4.703125 6.890625 3.175781 6.578125 2.15625 5.953125 C 1.132812 5.335938 0.625 4.570312 0.625 3.65625 C 0.625 2.9375 1.171875 2.046875 2.265625 0.984375 C 1.847656 0.691406 1.640625 0.285156 1.640625 -0.234375 C 1.640625 -0.535156 1.84375 -1.003906 2.25 -1.640625 C 2.664062 -2.285156 3.144531 -2.878906 3.6875 -3.421875 C 2.789062 -3.859375 2.097656 -4.476562 1.609375 -5.28125 C 1.117188 -6.09375 0.875 -7.03125 0.875 -8.09375 C 0.875 -9.570312 1.46875 -10.800781 2.65625 -11.78125 C 3.851562 -12.769531 5.359375 -13.265625 7.171875 -13.265625 C 8.828125 -13.265625 10.238281 -12.851562 11.40625 -12.03125 C 12.289062 -13.101562 13.242188 -13.640625 14.265625 -13.640625 C 14.753906 -13.640625 15.15625 -13.492188 15.46875 -13.203125 C 15.78125 -12.910156 15.9375 -12.5 15.9375 -11.96875 C 15.9375 -11.59375 15.847656 -11.132812 15.671875 -10.59375 C 15.398438 -10.644531 15.132812 -10.671875 14.875 -10.671875 C 14.25 -10.671875 13.617188 -10.523438 12.984375 -10.234375 C 13.296875 -9.566406 13.453125 -8.851562 13.453125 -8.09375 C 13.453125 -6.4375 12.835938 -5.125 11.609375 -4.15625 C 10.378906 -3.1875 8.898438 -2.703125 7.171875 -2.703125 Z M 9.375 -7.84375 C 9.375 -8.644531 9.171875 -9.3125 8.765625 -9.84375 C 8.367188 -10.375 7.828125 -10.640625 7.140625 -10.640625 C 5.703125 -10.640625 4.984375 -9.875 4.984375 -8.34375 C 4.984375 -7.476562 5.171875 -6.757812 5.546875 -6.1875 C 5.929688 -5.613281 6.460938 -5.328125 7.140625 -5.328125 C 7.941406 -5.328125 8.515625 -5.53125 8.859375 -5.9375 C 9.203125 -6.351562 9.375 -6.988281 9.375 -7.84375 Z M 8.640625 1.703125 L 4.984375 1.703125 C 4.804688 2.128906 4.71875 2.535156 4.71875 2.921875 C 4.71875 3.816406 5.535156 4.265625 7.171875 4.265625 C 8.359375 4.265625 9.253906 4.101562 9.859375 3.78125 C 10.472656 3.46875 10.78125 3.082031 10.78125 2.625 C 10.78125 2.007812 10.066406 1.703125 8.640625 1.703125 Z M 8.640625 1.703125 "/></g></g></g><g fill="rgb(100%, 100%, 100%)" fill-opacity="1"><g transform="translate(44.341873, 41.737214)"><g><path d="M 3.28125 -20.328125 C 3.976562 -20.328125 4.515625 -20.203125 4.890625 -19.953125 C 5.273438 -19.710938 5.46875 -19.253906 5.46875 -18.578125 C 5.46875 -18.453125 5.4375 -17.640625 5.375 -16.140625 C 5.3125 -14.648438 5.28125 -13.535156 5.28125 -12.796875 L 5.28125 -11.59375 C 6.425781 -12.6875 7.726562 -13.234375 9.1875 -13.234375 C 10.425781 -13.234375 11.445312 -12.875 12.25 -12.15625 C 13.050781 -11.445312 13.453125 -10.4375 13.453125 -9.125 C 13.453125 -9.09375 13.4375 -8.4375 13.40625 -7.15625 C 13.375 -5.882812 13.359375 -4.921875 13.359375 -4.265625 C 13.359375 -2.691406 13.515625 -1.359375 13.828125 -0.265625 C 13.046875 -0.0351562 12.253906 0.078125 11.453125 0.078125 C 9.992188 0.078125 9.265625 -0.476562 9.265625 -1.59375 C 9.265625 -2.25 9.289062 -3.453125 9.34375 -5.203125 C 9.40625 -6.960938 9.4375 -8.023438 9.4375 -8.390625 C 9.4375 -9.140625 9.285156 -9.703125 8.984375 -10.078125 C 8.679688 -10.453125 8.296875 -10.640625 7.828125 -10.640625 C 7.054688 -10.640625 6.207031 -10.191406 5.28125 -9.296875 C 5.3125 -6.960938 5.328125 -5.273438 5.328125 -4.234375 C 5.328125 -2.628906 5.375 -1.226562 5.46875 -0.03125 C 4.863281 0.0195312 4.328125 0.046875 3.859375 0.046875 C 2.035156 0.046875 1.125 -0.382812 1.125 -1.25 C 1.125 -1.320312 1.144531 -1.957031 1.1875 -3.15625 C 1.226562 -4.351562 1.25 -5.597656 1.25 -6.890625 L 1.25 -13.5625 C 1.25 -16.175781 1.1875 -18.304688 1.0625 -19.953125 C 1.757812 -20.203125 2.5 -20.328125 3.28125 -20.328125 Z M 3.28125 -20.328125 "/></g></g></g><g fill="rgb(100%, 100%, 100%)" fill-opacity="1"><g transform="translate(59.23995, 41.737214)"><g><path d="M 2.65625 -4.953125 L 2.65625 -10.421875 C 1.707031 -10.398438 0.894531 -10.335938 0.21875 -10.234375 C 0.0703125 -10.628906 0 -11.007812 0 -11.375 C 0 -12.445312 0.738281 -12.984375 2.21875 -12.984375 L 2.609375 -12.984375 C 2.554688 -14.097656 2.5 -15.03125 2.4375 -15.78125 C 3.019531 -16.007812 3.6875 -16.125 4.4375 -16.125 C 4.925781 -16.125 5.3125 -16.101562 5.59375 -16.0625 C 5.875 -16.019531 6.144531 -15.867188 6.40625 -15.609375 C 6.675781 -15.359375 6.8125 -14.984375 6.8125 -14.484375 C 6.8125 -14.203125 6.785156 -13.695312 6.734375 -12.96875 C 8.628906 -12.96875 10.128906 -13.035156 11.234375 -13.171875 C 11.359375 -12.921875 11.421875 -12.53125 11.421875 -12 C 11.421875 -11.039062 10.882812 -10.53125 9.8125 -10.46875 C 9.113281 -10.4375 8.066406 -10.421875 6.671875 -10.421875 C 6.617188 -8.617188 6.59375 -6.8125 6.59375 -5 C 6.59375 -4.570312 6.601562 -4.238281 6.625 -4 C 6.644531 -3.769531 6.691406 -3.492188 6.765625 -3.171875 C 6.847656 -2.847656 6.992188 -2.613281 7.203125 -2.46875 C 7.410156 -2.320312 7.679688 -2.25 8.015625 -2.25 C 8.921875 -2.25 9.648438 -2.519531 10.203125 -3.0625 C 10.953125 -2.53125 11.328125 -1.992188 11.328125 -1.453125 C 11.328125 -0.941406 11.007812 -0.523438 10.375 -0.203125 C 9.75 0.109375 9 0.265625 8.125 0.265625 C 6.132812 0.265625 4.722656 -0.164062 3.890625 -1.03125 C 3.066406 -1.90625 2.65625 -3.210938 2.65625 -4.953125 Z M 2.65625 -4.953125 "/></g></g></g><g fill="rgb(100%, 100%, 100%)" fill-opacity="1"><g transform="translate(70.947495, 41.737214)"><g><path d="M 3.28125 -20.328125 C 3.976562 -20.328125 4.515625 -20.203125 4.890625 -19.953125 C 5.273438 -19.710938 5.46875 -19.253906 5.46875 -18.578125 C 5.46875 -18.453125 5.4375 -17.640625 5.375 -16.140625 C 5.3125 -14.648438 5.28125 -13.535156 5.28125 -12.796875 L 5.28125 -11.59375 C 6.425781 -12.6875 7.726562 -13.234375 9.1875 -13.234375 C 10.425781 -13.234375 11.445312 -12.875 12.25 -12.15625 C 13.050781 -11.445312 13.453125 -10.4375 13.453125 -9.125 C 13.453125 -9.09375 13.4375 -8.4375 13.40625 -7.15625 C 13.375 -5.882812 13.359375 -4.921875 13.359375 -4.265625 C 13.359375 -2.691406 13.515625 -1.359375 13.828125 -0.265625 C 13.046875 -0.0351562 12.253906 0.078125 11.453125 0.078125 C 9.992188 0.078125 9.265625 -0.476562 9.265625 -1.59375 C 9.265625 -2.25 9.289062 -3.453125 9.34375 -5.203125 C 9.40625 -6.960938 9.4375 -8.023438 9.4375 -8.390625 C 9.4375 -9.140625 9.285156 -9.703125 8.984375 -10.078125 C 8.679688 -10.453125 8.296875 -10.640625 7.828125 -10.640625 C 7.054688 -10.640625 6.207031 -10.191406 5.28125 -9.296875 C 5.3125 -6.960938 5.328125 -5.273438 5.328125 -4.234375 C 5.328125 -2.628906 5.375 -1.226562 5.46875 -0.03125 C 4.863281 0.0195312 4.328125 0.046875 3.859375 0.046875 C 2.035156 0.046875 1.125 -0.382812 1.125 -1.25 C 1.125 -1.320312 1.144531 -1.957031 1.1875 -3.15625 C 1.226562 -4.351562 1.25 -5.597656 1.25 -6.890625 L 1.25 -13.5625 C 1.25 -16.175781 1.1875 -18.304688 1.0625 -19.953125 C 1.757812 -20.203125 2.5 -20.328125 3.28125 -20.328125 Z M 3.28125 -20.328125 "/></g></g></g><g fill="rgb(100%, 100%, 100%)" fill-opacity="1"><g transform="translate(85.845573, 41.737214)"><g><path d="M 12.21875 -1.53125 C 11 -0.332031 9.394531 0.265625 7.40625 0.265625 C 5.425781 0.265625 3.828125 -0.332031 2.609375 -1.53125 C 1.390625 -2.738281 0.78125 -4.34375 0.78125 -6.34375 C 0.78125 -8.445312 1.390625 -10.125 2.609375 -11.375 C 3.828125 -12.632812 5.425781 -13.265625 7.40625 -13.265625 C 9.394531 -13.265625 11 -12.632812 12.21875 -11.375 C 13.445312 -10.125 14.0625 -8.445312 14.0625 -6.34375 C 14.0625 -4.34375 13.445312 -2.738281 12.21875 -1.53125 Z M 9.984375 -5.796875 C 9.984375 -7.179688 9.753906 -8.332031 9.296875 -9.25 C 8.835938 -10.175781 8.207031 -10.640625 7.40625 -10.640625 C 6.625 -10.640625 6.007812 -10.265625 5.5625 -9.515625 C 5.125 -8.765625 4.90625 -7.78125 4.90625 -6.5625 C 4.90625 -5.351562 5.125 -4.351562 5.5625 -3.5625 C 6.007812 -2.769531 6.625 -2.375 7.40625 -2.375 C 8.226562 -2.375 8.863281 -2.6875 9.3125 -3.3125 C 9.757812 -3.945312 9.984375 -4.773438 9.984375 -5.796875 Z M 9.984375 -5.796875 "/></g></g></g><g fill="rgb(100%, 100%, 100%)" fill-opacity="1"><g transform="translate(100.690253, 41.737214)"><g><path d="M 14.0625 -0.265625 C 13.15625 -0.0351562 12.390625 0.078125 11.765625 0.078125 C 11.171875 0.078125 10.671875 -0.0507812 10.265625 -0.3125 C 9.859375 -0.570312 9.632812 -0.960938 9.59375 -1.484375 C 8.257812 -0.316406 6.820312 0.265625 5.28125 0.265625 C 2.707031 0.265625 1.421875 -1.015625 1.421875 -3.578125 C 1.421875 -3.628906 1.4375 -4.289062 1.46875 -5.5625 C 1.5 -6.84375 1.515625 -7.804688 1.515625 -8.453125 C 1.515625 -10.347656 1.363281 -11.765625 1.0625 -12.703125 C 1.78125 -12.953125 2.519531 -13.078125 3.28125 -13.078125 C 4.851562 -13.078125 5.640625 -12.519531 5.640625 -11.40625 C 5.640625 -10.800781 5.609375 -9.675781 5.546875 -8.03125 C 5.492188 -6.394531 5.46875 -5.414062 5.46875 -5.09375 C 5.46875 -4.21875 5.609375 -3.539062 5.890625 -3.0625 C 6.171875 -2.582031 6.519531 -2.34375 6.9375 -2.34375 C 7.875 -2.34375 8.742188 -2.769531 9.546875 -3.625 C 9.523438 -4.34375 9.515625 -5.445312 9.515625 -6.9375 C 9.515625 -9.0625 9.445312 -10.984375 9.3125 -12.703125 C 10.050781 -12.953125 10.753906 -13.078125 11.421875 -13.078125 C 12.160156 -13.078125 12.726562 -12.96875 13.125 -12.75 C 13.519531 -12.53125 13.71875 -12.070312 13.71875 -11.375 C 13.71875 -11.1875 13.695312 -10.628906 13.65625 -9.703125 C 13.613281 -8.773438 13.582031 -8.046875 13.5625 -7.515625 L 13.5625 -5.546875 C 13.5625 -3.234375 13.726562 -1.472656 14.0625 -0.265625 Z M 14.0625 -0.265625 "/></g></g></g><g fill="rgb(100%, 100%, 100%)" fill-opacity="1"><g transform="translate(115.815278, 41.737214)"><g><path d="M 8.421875 -8.859375 C 8.273438 -9.421875 8.019531 -9.859375 7.65625 -10.171875 C 7.289062 -10.484375 6.890625 -10.640625 6.453125 -10.640625 C 6.035156 -10.640625 5.679688 -10.53125 5.390625 -10.3125 C 5.097656 -10.09375 4.953125 -9.769531 4.953125 -9.34375 C 4.953125 -8.90625 5.164062 -8.5625 5.59375 -8.3125 C 6.019531 -8.0625 6.535156 -7.859375 7.140625 -7.703125 C 7.753906 -7.546875 8.363281 -7.351562 8.96875 -7.125 C 9.582031 -6.894531 10.101562 -6.515625 10.53125 -5.984375 C 10.96875 -5.453125 11.1875 -4.78125 11.1875 -3.96875 C 11.1875 -2.570312 10.632812 -1.515625 9.53125 -0.796875 C 8.425781 -0.0859375 7.128906 0.265625 5.640625 0.265625 C 5.160156 0.265625 4.691406 0.242188 4.234375 0.203125 C 3.773438 0.160156 3.25 0.0703125 2.65625 -0.0625 C 2.070312 -0.195312 1.597656 -0.429688 1.234375 -0.765625 C 0.878906 -1.109375 0.703125 -1.53125 0.703125 -2.03125 C 0.703125 -3.007812 1.441406 -3.773438 2.921875 -4.328125 C 3.109375 -3.671875 3.453125 -3.175781 3.953125 -2.84375 C 4.460938 -2.507812 5.003906 -2.34375 5.578125 -2.34375 C 6.796875 -2.34375 7.40625 -2.78125 7.40625 -3.65625 C 7.40625 -4.082031 7.082031 -4.425781 6.4375 -4.6875 C 5.789062 -4.957031 5.082031 -5.175781 4.3125 -5.34375 C 3.550781 -5.519531 2.847656 -5.910156 2.203125 -6.515625 C 1.554688 -7.128906 1.234375 -7.945312 1.234375 -8.96875 C 1.234375 -10.257812 1.785156 -11.296875 2.890625 -12.078125 C 3.992188 -12.867188 5.238281 -13.265625 6.625 -13.265625 C 7.25 -13.265625 7.882812 -13.195312 8.53125 -13.0625 C 9.1875 -12.925781 9.773438 -12.660156 10.296875 -12.265625 C 10.828125 -11.867188 11.09375 -11.390625 11.09375 -10.828125 C 11.09375 -10.335938 10.867188 -9.914062 10.421875 -9.5625 C 9.984375 -9.207031 9.316406 -8.972656 8.421875 -8.859375 Z M 8.421875 -8.859375 "/></g></g></g><g fill="rgb(100%, 100%, 100%)" fill-opacity="1"><g transform="translate(127.736416, 41.737214)"><g><path d="M 7.671875 -13.265625 C 9.023438 -13.265625 10.191406 -12.925781 11.171875 -12.25 C 12.160156 -11.570312 12.65625 -10.566406 12.65625 -9.234375 C 12.65625 -6.535156 10.722656 -5.1875 6.859375 -5.1875 C 6.515625 -5.1875 5.890625 -5.207031 4.984375 -5.25 C 4.984375 -4.207031 5.238281 -3.445312 5.75 -2.96875 C 6.269531 -2.5 6.910156 -2.265625 7.671875 -2.265625 C 9.023438 -2.265625 10.078125 -2.703125 10.828125 -3.578125 C 11.242188 -3.378906 11.582031 -3.109375 11.84375 -2.765625 C 12.113281 -2.429688 12.25 -2.09375 12.25 -1.75 C 12.25 -1.207031 11.925781 -0.769531 11.28125 -0.4375 C 10.632812 -0.113281 10.003906 0.0820312 9.390625 0.15625 C 8.785156 0.226562 8.195312 0.265625 7.625 0.265625 C 5.625 0.265625 3.984375 -0.28125 2.703125 -1.375 C 1.421875 -2.476562 0.78125 -4.160156 0.78125 -6.421875 C 0.78125 -7.921875 1.128906 -9.203125 1.828125 -10.265625 C 2.535156 -11.335938 3.394531 -12.101562 4.40625 -12.5625 C 5.414062 -13.03125 6.503906 -13.265625 7.671875 -13.265625 Z M 7.46875 -10.671875 C 6.800781 -10.671875 6.222656 -10.375 5.734375 -9.78125 C 5.242188 -9.1875 4.992188 -8.316406 4.984375 -7.171875 C 5.484375 -7.203125 5.835938 -7.226562 6.046875 -7.25 C 6.265625 -7.28125 6.566406 -7.335938 6.953125 -7.421875 C 7.347656 -7.515625 7.628906 -7.640625 7.796875 -7.796875 C 7.972656 -7.953125 8.132812 -8.171875 8.28125 -8.453125 C 8.425781 -8.742188 8.5 -9.097656 8.5 -9.515625 C 8.5 -9.804688 8.398438 -10.070312 8.203125 -10.3125 C 8.003906 -10.550781 7.757812 -10.671875 7.46875 -10.671875 Z M 7.46875 -10.671875 "/></g></g></g></svg>